<svg xmlns="http://www.w3.org/2000/svg" viewBox="0 0 202.65 117.6">
    <style>
        .border {
            stroke: #92e8ff !important;
        }
        .text {
            fill: #92e8ff !important;
        }
        .border-filled {
            fill: #92e8ff !important;
        }
        @media (prefers-color-scheme: dark) {
            .border {
                stroke: #000 !important;
            }
            .text {
                fill: #000 !important;
            }
            .border-filled {
                fill: #000 !important;
            }
        }
    </style>
    <text transform="translate(98.73 68.04)" style="font-size:35.932861328125px;font-family:OCRB">wezi</text>
    <path d="M889.47,539.21c4.56-7.34,13.89-10.59,18.87-7.07,8,5.65,6.4,29.9-3.49,34.74-4.33,2.12-9.77.29-13.16-2.88C885.55,558.27,884.71,546.86,889.47,539.21Z" transform="translate(-865.35 -477.81)" style="fill:#efefef" />
    <path d="M898,495.78c-2.46,2.35-3.37,6.51-1.54,9.36,2.46,3.84,9.1,4.1,12.37.6,2.3-2.45,2.94-6.73.78-9.58C907,492.65,901.18,492.78,898,495.78Z" transform="translate(-865.35 -477.81)" style="fill:#92e8ff" />
    <path class="border" d="M873.26,560.83c-.42,5.16,5.07,30,5.57,31.28,1.13,3,9.69,2.24,10.71,2.15a26.53,26.53,0,0,0,10.68-2.65c.33-.16,1.09-6,1.09-6" transform="translate(-865.35 -477.81)" style="fill:none;stroke:#000;stroke-linecap:round;stroke-miterlimit:10;stroke-width:2px" />
    <path class="border" d="M929.35,485.42c-18.12-7.69-33.45-4.89-37.94-1.1a43,43,0,0,0-7.12,8.21,17.75,17.75,0,0,0-2.3,6.56c-1.15,8.12-3.24,25.8-3.59,28.31-.64,4.61-2.82,12.19-11.11,21.15a3.57,3.57,0,0,0-.62,1,9.52,9.52,0,0,0,1.44,8,9.09,9.09,0,0,0,5.15,3.22" transform="translate(-865.35 -477.81)" style="fill:none;stroke:#000;stroke-linecap:round;stroke-miterlimit:10;stroke-width:2px" />
    <path class="border" d="M935.18,549.54c-.14,3.87-1,11.44-6.5,17.57-1.93,2.18-5.28,5.95-9.57,5.5a8.49,8.49,0,0,1-5.43-3.09c-2.54-3.31-1.37-7.45-.92-12.76a55.93,55.93,0,0,0-1.08-16.29" transform="translate(-865.35 -477.81)" style="fill:none;stroke:#000;stroke-linecap:round;stroke-miterlimit:10;stroke-width:2px" />
    <path class="border" d="M934.06,494.13a6.46,6.46,0,0,0,5.09-2.46,6.71,6.71,0,0,0-.7-8.15,5.94,5.94,0,0,0-3.37-1.76c-2.44-.25-5.13,1.72-6.32,4.95" transform="translate(-865.35 -477.81)" style="fill:none;stroke:#000;stroke-linecap:round;stroke-miterlimit:10;stroke-width:2px" />
    <path class="border" d="M885.78,490.45c-.19-.07-3.29-1.33-3.74-4.27a5.77,5.77,0,0,1,1.29-4.21c.55-.8,2.35-3.39,5.07-3.14A5.53,5.53,0,0,1,893,483.3" transform="translate(-865.35 -477.81)" style="fill:none;stroke:#000;stroke-linecap:round;stroke-miterlimit:10;stroke-width:2px" />
    <path class="border-filled" d="M887.47,488.34c-.68.16-2-1.06-1.93-2.44a2.4,2.4,0,0,1,1.64-2.22,2.49,2.49,0,0,1,1.65.29c.17.08,1.54.68,1.48,1.34,0,.5-.87.43-1.7,1.3S888,488.22,887.47,488.34Z" transform="translate(-865.35 -477.81)" />
    <path class="border-filled" d="M932.18,487.4a3.77,3.77,0,0,1,1.22-1.29,3.19,3.19,0,0,1,1.28-.5,2.45,2.45,0,0,1,2,.48,2.29,2.29,0,0,1,.7,1.84,2.37,2.37,0,0,1-1.79,2,3.48,3.48,0,0,1-1.71-.22c-.76-.19-1.14-.29-1.43-.64A2,2,0,0,1,932.18,487.4Z" transform="translate(-865.35 -477.81)" />
    <path class="border-filled" d="M889.9,495.18a3.28,3.28,0,0,0,1.14,1.47,2.3,2.3,0,0,0,1.57.53,2.46,2.46,0,0,0,1.9-2.67,2.33,2.33,0,0,0-.86-1.43,2.42,2.42,0,0,0-1.93-.5A2.58,2.58,0,0,0,889.9,495.18Z" transform="translate(-865.35 -477.81)" />
    <path class="border-filled" d="M917.11,496.18a3.25,3.25,0,0,0,1.15,1.47,2.28,2.28,0,0,0,1.57.53,2.44,2.44,0,0,0,1.89-2.67,2.29,2.29,0,0,0-.86-1.43,2.42,2.42,0,0,0-1.93-.5A2.59,2.59,0,0,0,917.11,496.18Z" transform="translate(-865.35 -477.81)" />
    <path class="border-filled" d="M896.4,500.83c.73,1.32,2.81,2,5,2.08,2.57.06,5.29-.78,6.14-2.58a3.93,3.93,0,0,0-.43-3.72c-1.46-2.15-5.17-2.86-8.91-1.07a3.93,3.93,0,0,0-1.52,1.29A4.08,4.08,0,0,0,896.4,500.83Z" transform="translate(-865.35 -477.81)" />
    <path class="border" d="M901.07,505.18a9.41,9.41,0,0,1-.14-1.21,7.89,7.89,0,0,1,.08-1.36" transform="translate(-865.35 -477.81)" style="fill:none;stroke:#000;stroke-linecap:round;stroke-miterlimit:10" />
    <path class="border" d="M877.63,530.91a95,95,0,0,0-3.75,17.25,93.3,93.3,0,0,0-.67,12.67" transform="translate(-865.35 -477.81)" style="fill:none;stroke:#000;stroke-linecap:round;stroke-miterlimit:10;stroke-width:2px" />
    <path class="border" d="M891.26,581.83a29.49,29.49,0,0,0,20.42,3.78s.76,5.84,1.09,6a26.53,26.53,0,0,0,10.68,2.65c1,.09,9.58.83,10.71-2.15.44-1.14,13.88-51.64,2.28-98" transform="translate(-865.35 -477.81)" style="fill:none;stroke:#000;stroke-linecap:round;stroke-miterlimit:10;stroke-width:2px" />
</svg>
